<?xml version="1.0" encoding="utf-8"?>
<!-- Generator: Adobe Illustrator 22.0.1, SVG Export Plug-In . SVG Version: 6.00 Build 0)  -->
<svg version="1.1" xmlns="http://www.w3.org/2000/svg" xmlns:xlink="http://www.w3.org/1999/xlink" x="0px" y="0px"
	 viewBox="0 0 512 512" style="enable-background:new 0 0 512 512;" xml:space="preserve">
<style type="text/css">
	.st0{fill:#9AC6D1;}
	.st1{fill:#A58BFA;}
	.st2{fill:#A5E1FD;}
	.st3{fill:#E799EA;}
	.st4{fill:#E194AD;}
	.st5{fill:#D0FCC4;}
	.st6{fill:#EEC0C5;}
	.st7{fill:#A7D4F1;}
	.st8{fill:#78B8EA;}
	.st9{fill:#A198FB;}
	.st10{fill:#ECBFFB;}
	.st11{fill:#EFC7DA;}
	.st12{fill:#85B4FB;}
	.st13{fill:#EDFFAA;}
	.st14{fill:#C9A8FB;}
	.st15{fill:#E9A8A8;}
	.st16{fill:#88ADB7;}
	.st17{fill:#C4F8D6;}
	.st18{fill:#A35561;}
	.st19{fill:#C0E0DC;}
	.st20{fill:#D3FAF7;}
	.st21{fill:#D9B583;}
	.st22{fill:#F0C98D;}
	.st23{fill:#C3A27A;}
	.st24{fill:#B35E6D;}
	.st25{fill:#C56673;}
	.st26{fill:#F0DABA;}
	.st27{fill:#E7B673;}
	.st28{fill:#FBFBFB;}
	.st29{fill:#F3D5E2;}
	.st30{fill:#FFFFFF;}
	.st31{fill:#E0DEDE;}
	.st32{fill:#F1D7DF;}
	.st33{fill:#EED5E0;}
	.st34{fill:#C34261;}
	.st35{fill:#AF3952;}
	.st36{fill:#B33C56;}
	.st37{fill:#C63C52;}
	.st38{fill:#E1D7F7;}
	.st39{fill:#904F5D;}
	.st40{fill:#C47287;}
	.st41{fill:#B76274;}
	.st42{fill:#FFFFCF;}
	.st43{fill:#E3E2BC;}
	.st44{fill:#BBA1E9;}
	.st45{fill:#DCB886;}
	.st46{fill:#D5D4D4;}
	.st47{fill:#F5FFE1;}
	.st48{fill:#D2D6C8;}
	.st49{fill:#C1C4BB;}
	.st50{fill:#AE5C6A;}
	.st51{fill:#B05F72;}
	.st52{fill:#D2687C;}
	.st53{fill:#D1D6C5;}
	.st54{fill:#B64867;}
	.st55{fill:#CA4A68;}
	.st56{fill:#DC7486;}
	.st57{fill:#B69CE4;}
	.st58{fill:#544A30;}
	.st59{fill:#443D24;}
	.st60{fill:#DDC5AF;}
	.st61{fill:#F4D9BF;}
	.st62{fill:#D5CFF8;}
	.st63{fill:#D1DE96;}
	.st64{fill:#36301E;}
	.st65{fill:#D0D4C6;}
	.st66{fill:#F3FFDF;}
	.st67{fill:#C7A6F9;}
	.st68{fill:#B49AE2;}
	.st69{fill:#E6C2A3;}
	.st70{fill:#B56170;}
	.st71{fill:#915465;}
	.st72{fill:#A15969;}
	.st73{fill:#F4D944;}
	.st74{fill:#ECCBAE;}
	.st75{fill:#F5DBC1;}
	.st76{fill:#6EA9CD;}
	.st77{fill:#6FABCF;}
	.st78{fill:#90CAEA;}
	.st79{fill:#F3E7A8;}
	.st80{fill:#CACACA;}
	.st81{fill:#96651F;}
	.st82{fill:#A7711F;}
	.st83{fill:#B33A54;}
	.st84{fill:#BA8022;}
	.st85{fill:#BC7D25;}
	.st86{fill:#CC8A27;}
	.st87{fill:#DFAA58;}
	.st88{fill:#D99E3C;}
	.st89{fill:#C48B37;}
	.st90{fill:#E5A9BF;}
	.st91{fill:#E7B7C6;}
	.st92{fill:#C16B7F;}
	.st93{fill:#D67484;}
	.st94{fill:#AF667B;}
	.st95{fill:#BE6A7D;}
	.st96{fill:#D9B1B8;}
	.st97{fill:#B2939C;}
	.st98{fill:#C5A2AB;}
	.st99{fill:#C3B3DE;}
	.st100{fill:#D9C3F9;}
	.st101{fill:#DDAB8A;}
	.st102{fill:#DFC5AF;}
	.st103{fill:#CA9B81;}
	.st104{fill:#383220;}
	.st105{fill:#BEF2F8;}
	.st106{fill:#E8A327;}
	.st107{fill:#CEF1F8;}
	.st108{fill:#E299A6;}
	.st109{fill:#E6AFB9;}
	.st110{fill:#E2C8D4;}
	.st111{fill:#EBC8D8;}
	.st112{fill:#E299BD;}
	.st113{fill:#DEDEDE;}
	.st114{fill:#EAB9CF;}
	.st115{fill:none;stroke:#908E8F;stroke-width:8;stroke-linecap:round;stroke-miterlimit:10;}
	.st116{fill:#CC8DB1;}
	.st117{fill:#DBDBDB;}
	.st118{fill:#C7C7C7;}
	.st119{fill:#9FCD65;}
	.st120{fill:#98334C;}
	.st121{fill:#A7A6A6;}
	.st122{fill:#B9B9B9;}
	.st123{fill:#A2A2A2;}
	.st124{fill:#9C5667;}
	.st125{fill:#AE5D6C;}
	.st126{fill:#C36673;}
	.st127{fill:#7B7A7A;}
	.st128{fill:#C2BAB7;}
	.st129{fill:#AFE0EE;}
	.st130{fill:#E7B776;}
	.st131{fill:#564A2F;}
	.st132{fill:#615533;}
	.st133{fill:#9D7E75;}
	.st134{fill:#B3A5A2;}
	.st135{fill:#D8D7D7;}
	.st136{fill:#4C4429;}
	.st137{fill:#3D3622;}
	.st138{fill:#DBC3AD;}
	.st139{fill:#F2D7BD;}
	.st140{fill:#CED2C4;}
	.st141{fill:#F2FFDD;}
	.st142{fill:#C5A4F7;}
	.st143{fill:#B298E0;}
	.st144{fill:#9C5360;}
	.st145{fill:#D28492;}
	.st146{fill:#DEC340;}
	.st147{fill:#C3AB3A;}
	.st148{fill:#DABF3D;}
	.st149{fill:#B09C36;}
	.st150{fill:#CE87D5;}
	.st151{fill:#F1E081;}
	.st152{fill:#DFB67D;}
	.st153{fill:#C1AA3A;}
	.st154{fill:#D5BB3C;}
	.st155{fill:#DCDCDC;}
	.st156{fill:#D9C1AB;}
	.st157{fill:#F0D5BB;}
	.st158{fill:#CCD0C2;}
	.st159{fill:#F0FFDB;}
	.st160{fill:#C3A1F5;}
	.st161{fill:#B096DE;}
	.st162{fill:#C16673;}
	.st163{fill:#9A5360;}
	.st164{fill:#8E7852;}
	.st165{fill:#AA3952;}
	.st166{fill:#CF7488;}
	.st167{fill:#DFBB88;}
	.st168{fill:#9F8557;}
	.st169{fill:#D4B282;}
	.st170{fill:#EED2AB;}
	.st171{fill:#F2E4BF;}
	.st172{fill:#ACCEDB;}
	.st173{fill:#BCE0F2;}
	.st174{fill:#9CC7DD;}
	.st175{fill:#D4AF80;}
	.st176{fill:#A0A0A0;}
	.st177{fill:#878787;}
	.st178{fill:#D9D9D9;}
	.st179{fill:#C5C5C5;}
	.st180{fill:#9DCB65;}
	.st181{fill:#AD3952;}
	.st182{fill:#C43C52;}
	.st183{fill:#96334C;}
	.st184{fill:#A5A4A4;}
	.st185{fill:#B7B7B7;}
	.st186{fill:#9A5667;}
	.st187{fill:#AC5D6C;}
	.st188{fill:#DADADA;}
	.st189{fill:#D7BFA9;}
	.st190{fill:#EED3B9;}
	.st191{fill:#CACEC0;}
	.st192{fill:#EEFFD9;}
	.st193{fill:#C19FF3;}
	.st194{fill:#AE94DC;}
	.st195{fill:#BF6673;}
	.st196{fill:#985360;}
	.st197{fill:#86AAB2;}
	.st198{fill:#98C4CF;}
	.st199{fill:#80A2A7;}
	.st200{fill:#66989B;}
	.st201{fill:#72A8B2;}
	.st202{fill:#C7A172;}
	.st203{fill:#7EBABE;}
	.st204{fill:#99C4C9;}
	.st205{fill:#A391DE;}
	.st206{fill:#BBA1FB;}
	.st207{fill:#867FB6;}
	.st208{fill:#9387C7;}
	.st209{fill:#F0C9F6;}
	.st210{fill:#E5ACF0;}
	.st211{fill:#D3A2DF;}
	.st212{fill:#A49CD9;}
	.st213{fill:#C5B7F6;}
	.st214{fill:#D1D1D1;}
	.st215{fill:#C7859F;}
	.st216{fill:#E8B878;}
	.st217{fill:#EED5B1;}
	.st218{fill:#BA8020;}
	.st219{fill:#E8B95F;}
	.st220{fill:#B56376;}
	.st221{fill:#DABF3F;}
	.st222{fill:#F8F8F8;}
	.st223{fill:#DFBCE6;}
	.st224{fill:#C3A56D;}
	.st225{fill:#AE9466;}
	.st226{fill:#D5889A;}
	.st227{fill:#C1A27B;}
	.st228{fill:#ECCDD3;}
	.st229{fill:#D38ADA;}
	.st230{fill:#B3606F;}
	.st231{fill:#A15A6B;}
	.st232{fill:#DAB785;}
	.st233{fill:#E5A85B;}
	.st234{fill:#CC88A2;}
	.st235{fill:#D5D4D5;}
	.st236{fill:#B05F6D;}
	.st237{fill:#F2D744;}
	.st238{fill:#77B6E8;}
	.st239{fill:#6FA9CD;}
	.st240{fill:#8EC8E8;}
	.st241{fill:#F1E5A6;}
	.st242{fill:#A13856;}
	.st243{fill:#8E3251;}
	.st244{fill:#6BA3BE;}
	.st245{fill:#D9BD39;}
	.st246{fill:#D7BD3D;}
	.st247{fill:#ADD6E0;}
	.st248{fill:#CCEAF2;}
	.st249{fill:#EAC3D2;}
	.st250{fill:#736144;}
	.st251{fill:#D4D3D2;}
	.st252{fill:#89754F;}
	.st253{fill:#B05D6C;}
	.st254{fill:#F1E3F7;}
	.st255{fill:#817E7D;}
	.st256{fill:#DBD2D0;}
	.st257{fill:#DF92AB;}
	.st258{fill:#D28995;}
	.st259{fill:#D5BB3D;}
	.st260{fill:#D4D4D4;}
	.st261{fill:#D49125;}
	.st262{fill:#D58A97;}
	.st263{fill:#669699;}
	.st264{fill:#72A6B0;}
	.st265{fill:#3B5967;}
	.st266{fill:#BEE6FD;}
	.st267{fill:#B36376;}
	.st268{fill:#D08290;}
	.st269{fill:#D8BD3F;}
	.st270{fill:#F1D3E0;}
	.st271{fill:#F6F6F6;}
	.st272{fill:#D6A3AD;}
	.st273{fill:#94BD61;}
	.st274{fill:#CC8BA4;}
	.st275{fill:#DD90A9;}
	.st276{fill:#D5BDA7;}
	.st277{fill:#ECD1B7;}
	.st278{fill:#C8CCBE;}
	.st279{fill:#EDFFD7;}
	.st280{fill:#BF9DF1;}
	.st281{fill:#AC92DA;}
	.st282{fill:#BD6673;}
	.st283{fill:#D8D8D8;}
	.st284{fill:#85A8B0;}
	.st285{fill:#96C2CD;}
	.st286{fill:#EEC78B;}
	.st287{fill:#D7D7D7;}
	.st288{fill:#C3C3C3;}
	.st289{fill:#A3A2A2;}
	.st290{fill:#B5B5B5;}
	.st291{fill:#9E9E9E;}
	.st292{fill:#985667;}
	.st293{fill:#AA5D6C;}
	.st294{fill:#E4C0A1;}
	.st295{fill:#EAC9AC;}
	.st296{fill:#6EA7CB;}
	.st297{fill:#F9F9F9;}
	.st298{fill:#ECD3DE;}
	.st299{fill:#C7F6F8;}
	.st300{fill:#DEF4F8;}
	.st301{fill:#ADA7A6;}
	.st302{fill:#E0E0E0;}
	.st303{fill:#736F6D;}
	.st304{fill:#DBB684;}
	.st305{fill:#D395A0;}
	.st306{fill:#36515B;}
	.st307{fill:#62605E;}
	.st308{fill:#2C4046;}
	.st309{fill:#BFC2B9;}
	.st310{fill:#7FA0A5;}
	.st311{fill:#87ABB5;}
	.st312{fill:#DDB47D;}
	.st313{fill:#C59F72;}
	.st314{fill:#7DB8BC;}
	.st315{fill:#97C2C7;}
	.st316{fill:#9A835C;}
	.st317{fill:#AB9162;}
	.st318{fill:#B59A6A;}
	.st319{fill:#D1D0CF;}
	.st320{fill:#E0CEDD;}
	.st321{fill:#5C3D11;}
	.st322{fill:#704B12;}
	.st323{fill:#E1A3FB;}
	.st324{fill:#B09565;}
	.st325{fill:#70AACD;}
	.st326{fill:#D9D8D7;}
	.st327{fill:#DFC7B1;}
	.st328{fill:#90B7BE;}
	.st329{fill:#9E5667;}
	.st330{fill:#E7FB90;}
	.st331{fill:#D7D1FA;}
	.st332{fill:#87ACB4;}
	.st333{fill:#D4AF90;}
	.st334{fill:#D8B280;}
	.st335{fill:#8C4B57;}
	.st336{fill:#CCCCCC;}
	.st337{fill:#B25F6D;}
	.st338{fill:#F4D4B3;}
	.st339{fill:#FCE5C8;}
	.st340{fill:#5A8384;}
	.st341{fill:#CE8AA2;}
	.st342{fill:#D6D6D6;}
	.st343{fill:#D8BAC6;}
	.st344{fill:#DBB482;}
</style>
<g id="BULINE">
	<circle id="XMLID_1274_" class="st6" cx="256" cy="256" r="256"/>
</g>
<g id="Icons">
	<g id="XMLID_1895_">
		<path id="XMLID_1951_" class="st25" d="M90.1,124.4l-1.1,2.2l-2.2-1.1c-12-6.1-26.6-1.3-32.7,10.7l-1.4,2.7
			c-6.1,12-1.3,26.6,10.7,32.7l2.2,1.1l46,23.4l23.4-46l1.1-2.2c6.1-12,1.3-26.6-10.7-32.7l-2.7-1.4
			C110.9,107.7,96.2,112.5,90.1,124.4z"/>
		<path id="XMLID_1950_" class="st25" d="M61.5,233.9l-0.1,1.1l-1.1-0.1c-6-0.4-11.1,4.1-11.5,10.1l-0.1,1.3
			c-0.4,6,4.1,11.1,10.1,11.5l1.1,0.1l23,1.6l1.6-23l0.1-1.1c0.4-6-4.1-11.1-10.1-11.5l-1.3-0.1C67.1,223.4,61.9,227.9,61.5,233.9z"
			/>
		<path id="XMLID_1949_" class="st25" d="M99.7,278.4l-1,1.7l-1.7-1c-9.3-5.3-21.2-2.1-26.5,7.2l-1.2,2.1
			c-5.3,9.3-2.1,21.2,7.2,26.5l1.7,1l35.8,20.5l20.5-35.8l1-1.7c5.3-9.3,2.1-21.2-7.2-26.5l-2.1-1.2
			C116.8,265.9,105,269.1,99.7,278.4z"/>
		<path id="XMLID_1948_" class="st25" d="M421.3,124.4l1.1,2.2l2.2-1.1c12-6.1,26.6-1.3,32.7,10.7l1.4,2.7
			c6.1,12,1.3,26.6-10.7,32.7l-2.2,1.1l-46,23.4l-23.4-46l-1.1-2.2c-6.1-12-1.3-26.6,10.7-32.7l2.7-1.4
			C400.6,107.7,415.3,112.5,421.3,124.4z"/>
		<path id="XMLID_1947_" class="st25" d="M450,233.9l0.1,1.1l1.1-0.1c6-0.4,11.1,4.1,11.5,10.1l0.1,1.3c0.4,6-4.1,11.1-10.1,11.5
			l-1.1,0.1l-23,1.6l-1.6-23l-0.1-1.1c-0.4-6,4.1-11.1,10.1-11.5l1.3-0.1C444.4,223.4,449.6,227.9,450,233.9z"/>
		<path id="XMLID_1946_" class="st25" d="M411.8,278.4l1,1.7l1.7-1c9.3-5.3,21.2-2.1,26.5,7.2l1.2,2.1c5.3,9.3,2.1,21.2-7.2,26.5
			l-1.7,1l-35.8,20.5L377,300.6l-1-1.7c-5.3-9.3-2.1-21.2,7.2-26.5l2.1-1.2C394.7,265.9,406.5,269.1,411.8,278.4z"/>
		<g id="XMLID_1896_">
			<path id="XMLID_1945_" class="st25" d="M326.3,63.7l-2.4,0.8L323,62c-4.3-13.6-18.8-21.1-32.4-16.8l-3,1
				C274,50.5,266.5,65,270.8,78.6l0.8,2.4l16.6,52.3l52.3-16.6l2.4-0.8c13.6-4.3,21.1-18.8,16.8-32.4l-1-3
				C354.4,66.9,339.9,59.4,326.3,63.7z"/>
			<path id="XMLID_1944_" class="st25" d="M184.1,69.6l-0.2,2.6l-2.6-0.2c-14.2-1.2-26.7,9.4-27.9,23.6l-0.3,3.2
				c-1.2,14.2,9.4,26.7,23.6,27.9l2.6,0.2l54.7,4.5l4.5-54.7l0.2-2.6c1.2-14.2-9.4-26.7-23.6-27.9l-3.2-0.3
				C197.7,44.9,185.3,55.4,184.1,69.6z"/>
			<g id="XMLID_1918_">
				<path id="XMLID_1943_" class="st223" d="M357,322v73.9c0,6.8-5.5,12.2-12.2,12.2H162.8c-6.8,0-12.2-5.5-12.2-12.2V322H357z"/>
				<path id="XMLID_1942_" class="st209" d="M357,322v73.9c0,6.8-5.5,12.2-12.2,12.2h-149c-6.8,0-12.2-5.5-12.2-12.2V322H357z"/>
				<rect id="XMLID_1941_" x="171.2" y="236" class="st223" width="165.1" height="86.2"/>
				<rect id="XMLID_1940_" x="201.8" y="236" class="st209" width="134.5" height="86.2"/>
				<rect id="XMLID_1939_" x="191.4" y="149.9" class="st223" width="123.8" height="86.2"/>
				<rect id="XMLID_1938_" x="217.7" y="149.9" class="st209" width="97.5" height="86.2"/>
				<path id="XMLID_1937_" class="st30" d="M316.9,130.6H189.7c-4.4,0-7.9,3.5-7.9,7.9v11.4v22.9c0,5.3,4.3,9.6,9.6,9.6v-32.5
					c0,11.4,9.2,20.6,20.6,20.6c11.4,0,20.6-9.2,20.6-20.6c0,11.4,9.2,20.6,20.6,20.6c11.4,0,20.6-9.2,20.6-20.6
					c0,11.4,9.2,20.6,20.6,20.6c11.4,0,20.6-9.2,20.6-20.6v32.5c5.3,0,9.6-4.3,9.6-9.6v-22.9v-11.4
					C324.8,134.1,321.3,130.6,316.9,130.6z"/>
				<path id="XMLID_1936_" class="st30" d="M338.4,217.2h-169c-5.8,0-10.5,3.5-10.5,7.9v11.4v22.9c0,5.3,5.7,9.6,12.8,9.6v-28.7
					c1.9,9.4,10.3,16.4,20.2,16.4c11.3,0,20.4-9,20.6-20.2h0c0.2,11.2,9.4,20.2,20.6,20.2c11.3,0,20.4-9,20.6-20.2h0
					c0.2,11.2,9.4,20.2,20.6,20.2c11.3,0,20.4-9,20.6-20.2h0c0.2,11.2,9.4,20.2,20.6,20.2c10.5,0,19.1-7.8,20.5-17.9V269
					c7,0,12.8-4.3,12.8-9.6v-22.9v-11.4C348.9,220.7,344.2,217.2,338.4,217.2z"/>
				<path id="XMLID_1935_" class="st30" d="M359.8,303.3H151.1c-7.2,0-13,3.5-13,7.9v11.4v22.9c0,5.3,7.1,9.6,15.8,9.6v-21.9
					c3.7,5.7,10.1,9.5,17.3,9.5c11.2,0,20.3-8.9,20.6-20.1h0c0.3,11.1,9.4,20.1,20.6,20.1c11.2,0,20.3-8.9,20.6-20.1h0
					c0.3,11.1,9.4,20.1,20.6,20.1c11.2,0,20.3-8.9,20.6-20.1h0c0.3,11.1,9.4,20.1,20.6,20.1c11.2,0,20.3-8.9,20.6-20.1h0
					c0.3,11.1,9.4,20.1,20.6,20.1c11.2,0,20.3-8.9,20.6-20.1h0v32.5c8.7,0,15.8-4.3,15.8-9.6v-22.9v-11.4
					C372.7,306.8,366.9,303.3,359.8,303.3z"/>
				<path id="XMLID_1934_" class="st35" d="M228.6,217.2h-23.5c0-6.5,5.3-11.7,11.7-11.7c0.9,0,1.8,0.1,2.6,0.3
					C224.7,206.9,228.6,211.6,228.6,217.2z"/>
				<path id="XMLID_1933_" class="st37" d="M228.6,217.2h-18.3c0-5.6,3.9-10.3,9.1-11.4C224.7,206.9,228.6,211.6,228.6,217.2z"/>
				<path id="XMLID_1932_" class="st35" d="M262.3,217.2h-23.5c0-6.5,5.3-11.7,11.7-11.7c0.9,0,1.8,0.1,2.6,0.3
					C258.4,206.9,262.3,211.6,262.3,217.2z"/>
				<path id="XMLID_1931_" class="st37" d="M262.3,217.2H244c0-5.6,3.9-10.3,9.1-11.4C258.4,206.9,262.3,211.6,262.3,217.2z"/>
				<path id="XMLID_1930_" class="st35" d="M296.5,217.2H273c0-6.5,5.3-11.7,11.7-11.7c0.9,0,1.8,0.1,2.6,0.3
					C292.6,206.9,296.5,211.6,296.5,217.2z"/>
				<path id="XMLID_1929_" class="st37" d="M296.5,217.2h-18.3c0-5.6,3.9-10.3,9.1-11.4C292.6,206.9,296.5,211.6,296.5,217.2z"/>
				<path id="XMLID_1928_" class="st35" d="M198.7,303.3h-23.5c0-6.5,5.3-11.7,11.7-11.7c0.9,0,1.8,0.1,2.6,0.3
					C194.8,293,198.7,297.7,198.7,303.3z"/>
				<path id="XMLID_1927_" class="st37" d="M198.7,303.3h-18.3c0-5.6,3.9-10.3,9.1-11.4C194.8,293,198.7,297.7,198.7,303.3z"/>
				<path id="XMLID_1926_" class="st35" d="M232.4,303.3h-23.5c0-6.5,5.3-11.7,11.7-11.7c0.9,0,1.8,0.1,2.6,0.3
					C228.5,293,232.4,297.7,232.4,303.3z"/>
				<path id="XMLID_1925_" class="st37" d="M232.4,303.3h-18.3c0-5.6,3.9-10.3,9.1-11.4C228.5,293,232.4,297.7,232.4,303.3z"/>
				<path id="XMLID_1924_" class="st35" d="M266.6,303.3h-23.5c0-6.5,5.3-11.7,11.7-11.7c0.9,0,1.8,0.1,2.6,0.3
					C262.7,293,266.6,297.7,266.6,303.3z"/>
				<path id="XMLID_1923_" class="st37" d="M266.6,303.3h-18.3c0-5.6,3.9-10.3,9.1-11.4C262.7,293,266.6,297.7,266.6,303.3z"/>
				<path id="XMLID_1922_" class="st35" d="M299.3,303.3h-23.5c0-6.5,5.3-11.7,11.7-11.7c0.9,0,1.8,0.1,2.6,0.3
					C295.4,293,299.3,297.7,299.3,303.3z"/>
				<path id="XMLID_1921_" class="st37" d="M299.3,303.3H281c0-5.6,3.9-10.3,9.1-11.4C295.4,293,299.3,297.7,299.3,303.3z"/>
				<path id="XMLID_1920_" class="st35" d="M333,303.3h-23.5c0-6.5,5.3-11.7,11.7-11.7c0.9,0,1.8,0.1,2.6,0.3
					C329.1,293,333,297.7,333,303.3z"/>
				<path id="XMLID_1919_" class="st37" d="M333,303.3h-18.3c0-5.6,3.9-10.3,9.1-11.4C329.1,293,333,297.7,333,303.3z"/>
			</g>
			<path id="XMLID_1917_" class="st224" d="M300.3,130.6h-90.5v0c0-8.4,6.8-15.2,15.2-15.2h60.2
				C293.5,115.4,300.3,122.2,300.3,130.6L300.3,130.6z"/>
			<path id="XMLID_1916_" class="st59" d="M244.5,117.2h-1.8V82.1h0.3c2.1,0,3.8-1.7,3.8-3.8v-1.6h0.1c0.5,0,0.9-0.4,0.9-0.9v-0.6
				h-4.6v1.5h0c0-0.1,0-0.2,0-0.3l0-1.1h1.3h3.3c0.2,0,0.4-0.2,0.4-0.4L246.9,62v-4.6c0-6.1-1.4-8.4-2.4-9.3
				c-0.3-0.2-0.5-0.4-0.7-0.4c-0.2-0.1-0.4-0.1-0.4-0.1c0,0,0,0,0,0l-3.6-0.9c-0.3-2.2-2.6-3.4-3-3.7l0,0H236c3.4-0.8,6-3.9,6.1-7.6
				c0,0,0,0,0,0c1,0,1.8-0.8,1.8-1.8c0-1-0.8-1.8-1.8-1.8v-0.5v-1.3l1.7-6.9c0.1-0.3,0.1-0.6,0.1-0.9c-0.6-4.6-9.7-4.4-11.2-4.4
				c-0.2,0-0.3,0-0.5,0c-13,0.1-11.4,4.9-11.4,4.9l2.1,7.2v1.3v0.5c-1,0-1.8,0.8-1.8,1.8c0,1,0.8,1.8,1.8,1.8c0,0,0,0,0,0
				c0.1,3.7,2.6,6.7,6.1,7.6h-1.2c0,0-2.8,1.2-3.1,3.7l-3.7,1c0,0,0,0,0,0c0,0-0.1,0-0.4,0.1c-0.2,0.1-0.4,0.2-0.7,0.4
				c-1,0.9-2.4,3.2-2.4,9.3V62L216,74.9c0,0.2,0.2,0.4,0.4,0.4h3.3h1.3l0,1.1c0,0.1,0,0.2,0,0.3h0v-1.5h-4.6v0.6
				c0,0.5,0.4,0.9,0.9,0.9v1.6c0,2.1,1.7,3.8,3.8,3.8h0.5v35.1h-1.7c-2.3,0-4.1,1.8-4.1,4.1H228c1.5,0,2.7-1.2,2.7-2.7v-1.4h0V84.6
				h3v32.7v0.2v1.2c0,1.5,1.2,2.7,2.7,2.7h12.3C248.7,119.1,246.8,117.2,244.5,117.2z"/>
			<g id="XMLID_1914_">
				<path id="XMLID_1915_" class="st30" d="M294.3,118.9c0-0.1,0-0.2,0-0.3c-2.9-15-10.9-29.9-23.8-44.9c0,0,0,0,0,0
					c-0.1-0.7-0.1-1.4-0.1-2.1v0l3.2-1.5c1.1-0.5,1.7-1.6,1.7-2.7c0-0.3,0-0.6-0.1-0.9l-1-3.3c2-1,2.2-3,2.2-3
					c1.7,0.8,3.4,0.1,4.5-0.6c0.6-0.4,0.8-1.1,0.5-1.7l-9-18.1l0,0c0.2-0.8,0.4-1.7,0.4-2.6c0-2.9-1.3-5.6-3.3-7.5
					c-0.4-0.4-0.9-0.7-1.3-1c-0.4-0.2-0.7-0.5-1.1-0.7c0,0,0,0,0,0c0.1-0.4,0.1-0.7,0.1-1.1c0-2.5-1.8-4.5-4.2-4.9
					c-0.3,0-0.5-0.1-0.8-0.1c-2.7,0-5,2.2-5,5c0,0.4,0,0.8,0.1,1.1c0,0,0,0,0,0c-0.4,0.2-0.8,0.4-1.1,0.7c-0.5,0.3-0.9,0.7-1.3,1
					c-2,1.9-3.3,4.5-3.3,7.5c0,0.9,0.1,1.7,0.3,2.6v0l-9.1,18.2c-0.3,0.6-0.1,1.3,0.5,1.7c1.1,0.6,2.8,1.4,4.5,0.6
					c0,0,0.1,2,2.3,3.1l-0.9,3.1c-0.1,0.3-0.1,0.6-0.1,0.9c0,0.6,0.2,1.1,0.5,1.6c0.3,0.5,0.7,0.9,1.3,1.1l3.1,1.5l0,0
					c0,0.7,0,1.4-0.1,2.2c-13.5,15-21.6,30-24.4,45c-0.2,1.1,0.5,2.1,1.6,2.3c11,2.1,22.1,3,33.4,2.8c9.4-0.2,19-1.1,28.6-2.8
					c0.9-0.2,1.6-1,1.6-1.9C294.3,119.1,294.3,119,294.3,118.9z"/>
			</g>
			<path id="XMLID_1913_" class="st37" d="M318.7,230.2l-0.7,0.1l-0.1-0.7c-0.8-3.8-4.5-6.3-8.4-5.5l-0.9,0.2
				c-3.8,0.8-6.3,4.5-5.5,8.4l0.1,0.7l3,14.8l14.8-3l0.7-0.1c3.8-0.8,6.3-4.5,5.5-8.4l-0.2-0.9C326.3,231.9,322.6,229.4,318.7,230.2
				z"/>
			<path id="XMLID_1912_" class="st37" d="M183.8,230.9l-0.1,0.7l-0.7-0.1c-3.8-0.3-7.2,2.5-7.6,6.4l-0.1,0.9
				c-0.3,3.8,2.5,7.2,6.4,7.6l0.7,0.1l14.8,1.3l1.3-14.8l0.1-0.7c0.3-3.8-2.5-7.2-6.4-7.6l-0.9-0.1
				C187.5,224.2,184.1,227,183.8,230.9z"/>
			<g id="XMLID_1909_">
				<path id="XMLID_1911_" class="st225" d="M381.6,406.8c0,5-2,9.6-5.3,12.9c-3.3,3.3-7.9,5.3-12.9,5.3H142.2
					c-10.1,0-18.3-8.2-18.3-18.3H381.6z"/>
				<path id="XMLID_1910_" class="st224" d="M381.6,406.8c0,5-2,9.6-5.3,12.9c-3.3,3.3-7.9,5.3-12.9,5.3h-180
					c-10.1,0-18.3-8.2-18.3-18.3H381.6z"/>
			</g>
			<rect id="XMLID_1908_" x="150.6" y="365.1" class="st226" width="206.4" height="19.6"/>
			<g id="XMLID_1899_">
				<path id="XMLID_1907_" class="st34" d="M255.5,372.6l-5.9,2.6l-22.1,9.9c-2.8,1.2-5.9-0.8-5.9-3.8v-17.5c0-3,3.1-5,5.9-3.8
					L255.5,372.6z"/>
				<path id="XMLID_1906_" class="st35" d="M249.7,375.3l-22.1,9.9c-2.8,1.2-5.9-0.8-5.9-3.8v-12.2c0-3,3.1-5,5.9-3.8L249.7,375.3z"
					/>
				<path id="XMLID_1905_" class="st34" d="M289.2,363.9v17.5c0,3-3.1,5-5.9,3.8l-23.4-10.5l-4.6-2l28-12.5
					C286.1,358.9,289.2,360.9,289.2,363.9z"/>
				<path id="XMLID_1904_" class="st35" d="M289.2,368v13.4c0,3-3.1,5-5.9,3.8l-23.4-10.5l23.4-10.5
					C286.1,362.9,289.2,365,289.2,368z"/>
				<polygon id="XMLID_1903_" class="st35" points="252.8,373.8 229,407.1 236.1,404.2 240.9,409.7 				"/>
				<polygon id="XMLID_1902_" class="st35" points="259.2,373.8 283,407.1 275.9,404.2 271.1,409.7 				"/>
				<path id="XMLID_1901_" class="st36" d="M263.2,372.6c0,3.6-2.5,6.6-5.8,7.4c-0.6,0.1-1.2,0.2-1.8,0.2c-4.2,0-7.6-3.4-7.6-7.6
					s3.4-7.6,7.6-7.6c0.6,0,1.2,0.1,1.8,0.2C260.7,366,263.2,369,263.2,372.6z"/>
				<path id="XMLID_1900_" class="st37" d="M263.2,372.6c0,3.6-2.5,6.6-5.8,7.4c-3.3-0.8-5.8-3.8-5.8-7.4s2.5-6.6,5.8-7.4
					C260.7,366,263.2,369,263.2,372.6z"/>
			</g>
			<rect id="XMLID_1898_" x="191.4" y="183.8" class="st226" width="123.8" height="19.6"/>
			<path id="XMLID_1897_" class="st225" d="M286.7,472.1h-16.4V425h-35.1v47.1h-16.4c-11,0-19.9,8.9-19.9,19.9h107.7
				C306.6,481,297.7,472.1,286.7,472.1z"/>
		</g>
	</g>
</g>
</svg>
