<svg xmlns="http://www.w3.org/2000/svg" xmlns:xlink="http://www.w3.org/1999/xlink" viewBox="0 0 226.95 226.14"><defs><style>.cls-1{isolation:isolate;}.cls-2{opacity:0.4;mix-blend-mode:multiply;fill:url(#linear-gradient);}.cls-3{fill:#f2a7c5;stroke:#1f2687;}.cls-3,.cls-4{stroke-miterlimit:10;stroke-width:6px;}.cls-4{fill:#9faed0;stroke:#212683;}.cls-5{fill:#212683;}</style><linearGradient id="linear-gradient" x1="13.71" y1="91.71" x2="218.09" y2="91.71" gradientTransform="matrix(0.95, -0.32, 0.32, 0.95, -23.91, 50.82)" gradientUnits="userSpaceOnUse"><stop offset="0" stop-color="#efa6c2"/><stop offset="1" stop-color="#96cdbd"/></linearGradient></defs><title>Gifts 13</title><g class="cls-1"><g id="Layer_2" data-name="Layer 2"><g id="Layer_1-2" data-name="Layer 1"><path class="cls-2" d="M152.19,68.18a56.58,56.58,0,0,0-17.07,9.23,67.89,67.89,0,1,0-86.88,55.47,56.69,56.69,0,1,0,99.83,41.21,56.68,56.68,0,1,0,4.12-105.9Z"/><path class="cls-3" d="M109.39,33.63h0A16.48,16.48,0,0,1,125.86,50.1V66.58a0,0,0,0,1,0,0H109.39A16.48,16.48,0,0,1,92.91,50.1v0A16.48,16.48,0,0,1,109.39,33.63Z"/><path class="cls-3" d="M142.34,33.63h16.48a0,0,0,0,1,0,0V50.1a16.48,16.48,0,0,1-16.48,16.48h0A16.48,16.48,0,0,1,125.86,50.1v0a16.48,16.48,0,0,1,16.48-16.48Z" transform="translate(284.68 100.21) rotate(-180)"/><path class="cls-4" d="M87.23,66.49H164.5a5.9,5.9,0,0,1,5.9,5.9v41.3a0,0,0,0,1,0,0H81.33a0,0,0,0,1,0,0V72.39A5.9,5.9,0,0,1,87.23,66.49Z"/><path class="cls-4" d="M70.23,113.59H181.5a5.9,5.9,0,0,1,5.9,5.9v41.3a0,0,0,0,1,0,0H64.33a0,0,0,0,1,0,0v-41.3A5.9,5.9,0,0,1,70.23,113.59Z"/><path class="cls-4" d="M43.51,160.69H208.22a5.9,5.9,0,0,1,5.9,5.9v41.3a0,0,0,0,1,0,0H37.61a0,0,0,0,1,0,0v-41.3A5.9,5.9,0,0,1,43.51,160.69Z"/><path class="cls-5" d="M38.25,38.89H35.89V36.53a2.9,2.9,0,0,0-5.8,0v2.36H27.73a2.9,2.9,0,0,0,0,5.8h2.36V47a2.9,2.9,0,1,0,5.8,0V44.69h2.36a2.9,2.9,0,0,0,0-5.8Z"/><path class="cls-5" d="M219.38,121.39H217V119a2.9,2.9,0,0,0-5.8,0v2.36h-2.36a2.9,2.9,0,0,0,0,5.8h2.36v2.36a2.9,2.9,0,1,0,5.8,0v-2.36h2.36a2.9,2.9,0,0,0,0-5.8Z"/><path class="cls-5" d="M207.83,30.73h-2.36V28.37a2.9,2.9,0,0,0-5.8,0v2.36h-2.36a2.9,2.9,0,0,0,0,5.8h2.36v2.36a2.9,2.9,0,1,0,5.8,0V36.53h2.36a2.9,2.9,0,0,0,0-5.8Z"/><polyline class="cls-3" points="64.33 176.9 37.61 176.9 37.61 191.69 214.12 191.69 214.12 176.9 82.49 176.9"/><rect class="cls-3" x="64.33" y="129.79" width="123.07" height="14.79"/><rect class="cls-3" x="81.33" y="82.69" width="89.07" height="14.79"/><circle class="cls-5" cx="73.2" cy="176.9" r="3.41"/></g></g></g></svg>